<svg width="16" height="13" viewBox="0 0 16 13" fill="none" xmlns="http://www.w3.org/2000/svg">
<path d="M9.64041 11.8326C11.189 10.6706 13.4238 8.85138 14.3551 7.39647C15.052 6.30951 15.2787 4.96287 14.9756 3.71078C14.328 0.85864 10.7421 -0.306813 8.50837 1.60452C8.38274 1.71131 8.26694 1.82969 8.14807 1.95125C8.09958 2.00086 8.05053 2.05099 8.00008 2.10108C7.94963 2.05099 7.90058 2.00085 7.85209 1.95124C7.73322 1.82969 7.61742 1.71131 7.49179 1.60452C5.2581 -0.306813 1.67213 0.85864 1.02454 3.71078C0.721451 4.96287 0.948158 6.30951 1.64502 7.39647C2.57631 8.85138 4.81112 10.6706 6.35975 11.8326C6.79126 12.1564 8.00008 13 8.00008 13C8.00008 13 9.2089 12.1564 9.64041 11.8326Z" fill="#FF4B97"/>
</svg>
